<svg width="43" height="43" viewBox="0 0 43 43" fill="none" xmlns="http://www.w3.org/2000/svg">
<g filter="url(#filter0_d)">
<circle cx="21.5" cy="19.5" r="17.5" fill="white"/>
</g>
<mask id="mask0" mask-type="alpha" maskUnits="userSpaceOnUse" x="13" y="17" width="5" height="5">
<path fill-rule="evenodd" clip-rule="evenodd" d="M13.0156 17.2045H17.477V21.6814H13.0156V17.2045Z" fill="white"/>
</mask>
<g mask="url(#mask0)">
<path fill-rule="evenodd" clip-rule="evenodd" d="M17.4762 19.4438C17.4762 18.2092 16.4724 17.2045 15.2376 17.2045C14.0037 17.2045 13 18.2092 13 19.4438C13 20.6776 14.0037 21.6814 15.2376 21.6814C16.4724 21.6806 17.4762 20.6767 17.4762 19.4438ZM13.7882 19.4438C13.7882 18.644 14.4388 17.9936 15.2376 17.9936C16.0373 17.9936 16.688 18.644 16.688 19.4438C16.688 20.2428 16.0373 20.8922 15.2376 20.8922C14.4388 20.8922 13.7882 20.2428 13.7882 19.4438Z" fill="black"/>
</g>
<path fill-rule="evenodd" clip-rule="evenodd" d="M23.6205 19.4438C23.6205 18.2092 22.6167 17.2045 21.3821 17.2045C20.1483 17.2045 19.1445 18.2092 19.1445 19.4438C19.1445 20.6776 20.1483 21.6814 21.3821 21.6814C22.6167 21.6806 23.6205 20.6767 23.6205 19.4438ZM21.3821 20.8922C20.5831 20.8922 19.9327 20.2428 19.9327 19.443C19.9327 18.6431 20.5831 17.9926 21.3821 17.9926C22.1819 17.9926 22.8323 18.6431 22.8323 19.443C22.8323 20.2428 22.1819 20.8922 21.3821 20.8922Z" fill="black"/>
<path fill-rule="evenodd" clip-rule="evenodd" d="M27.5257 17.2045C26.2908 17.2045 25.2871 18.2092 25.2871 19.443C25.2871 20.6767 26.2908 21.6806 27.5257 21.6806C28.7595 21.6806 29.7633 20.6767 29.7633 19.443C29.7633 18.2092 28.7595 17.2045 27.5257 17.2045ZM27.5257 20.8922C26.726 20.8922 26.0753 20.2428 26.0753 19.443C26.0753 18.6431 26.726 17.9926 27.5257 17.9926C28.3244 17.9926 28.9751 18.6431 28.9751 19.443C28.9751 20.2428 28.3244 20.8922 27.5257 20.8922Z" fill="black"/>
<defs>
<filter id="filter0_d" x="0" y="0" width="43" height="43" filterUnits="userSpaceOnUse" color-interpolation-filters="sRGB">
<feFlood flood-opacity="0" result="BackgroundImageFix"/>
<feColorMatrix in="SourceAlpha" type="matrix" values="0 0 0 0 0 0 0 0 0 0 0 0 0 0 0 0 0 0 127 0"/>
<feOffset dy="2"/>
<feGaussianBlur stdDeviation="2"/>
<feColorMatrix type="matrix" values="0 0 0 0 0 0 0 0 0 0 0 0 0 0 0 0 0 0 0.196643 0"/>
<feBlend mode="normal" in2="BackgroundImageFix" result="effect1_dropShadow"/>
<feBlend mode="normal" in="SourceGraphic" in2="effect1_dropShadow" result="shape"/>
</filter>
</defs>
</svg>
