<svg width="15" height="15" viewBox="0 0 15 15" fill="none" xmlns="http://www.w3.org/2000/svg">
<mask id="mask0" mask-type="alpha" maskUnits="userSpaceOnUse" x="0" y="0" width="16" height="15">
<path fill-rule="evenodd" clip-rule="evenodd" d="M0.00195312 0H15.0002V15H0.00195312V0Z" fill="white"/>
</mask>
<g mask="url(#mask0)">
<path fill-rule="evenodd" clip-rule="evenodd" d="M14.4141 6.91406H8.08594V0.585938C8.08594 0.262324 7.82361 0 7.5 0C7.17639 0 6.91406 0.262324 6.91406 0.585938V6.91406H0.585938C0.262324 6.91406 0 7.17639 0 7.5C0 7.82361 0.262324 8.08594 0.585938 8.08594H6.91406V14.4141C6.91406 14.7377 7.17639 15 7.5 15C7.82361 15 8.08594 14.7377 8.08594 14.4141V8.08594H14.4141C14.7377 8.08594 15 7.82361 15 7.5C15 7.17639 14.7377 6.91406 14.4141 6.91406Z" fill="#0A090B"/>
</g>
</svg>
